<?xml version="1.0" encoding="UTF-8" standalone="no"?>
<!DOCTYPE svg PUBLIC "-//W3C//DTD SVG 1.1//EN"
 "http://www.w3.org/Graphics/SVG/1.1/DTD/svg11.dtd">
<!-- Generated by graphviz version 2.40.1 (20161225.0304)
 -->
<!-- Title: G Pages: 1 -->
<svg width="908pt" height="372pt"
 viewBox="0.00 0.00 908.20 372.46" xmlns="http://www.w3.org/2000/svg" xmlns:xlink="http://www.w3.org/1999/xlink">
<g id="graph0" class="graph" transform="scale(1 1) rotate(0) translate(21.6 350.8555)">
<title>G</title>
<polygon fill="#111111" stroke="transparent" points="-21.6,21.6 -21.6,-350.8555 886.6,-350.8555 886.6,21.6 -21.6,21.6"/>
<!-- being.js -->
<g id="node1" class="node">
<title>being.js</title>
<path fill="none" stroke="#c6c5fe" d="M756.3333,-63C756.3333,-63 704.6667,-63 704.6667,-63 700.8333,-63 697,-59.1667 697,-55.3333 697,-55.3333 697,-47.6667 697,-47.6667 697,-43.8333 700.8333,-40 704.6667,-40 704.6667,-40 756.3333,-40 756.3333,-40 760.1667,-40 764,-43.8333 764,-47.6667 764,-47.6667 764,-55.3333 764,-55.3333 764,-59.1667 760.1667,-63 756.3333,-63"/>
<text text-anchor="middle" x="730.5" y="-47.8" font-family="Arial" font-size="14.00" fill="#c6c5fe">being.js</text>
</g>
<!-- entity.js -->
<g id="node2" class="node">
<title>entity.js</title>
<path fill="none" stroke="#cfffac" d="M857.3333,-63C857.3333,-63 807.6667,-63 807.6667,-63 803.8333,-63 800,-59.1667 800,-55.3333 800,-55.3333 800,-47.6667 800,-47.6667 800,-43.8333 803.8333,-40 807.6667,-40 807.6667,-40 857.3333,-40 857.3333,-40 861.1667,-40 865,-43.8333 865,-47.6667 865,-47.6667 865,-55.3333 865,-55.3333 865,-59.1667 861.1667,-63 857.3333,-63"/>
<text text-anchor="middle" x="832.5" y="-47.8" font-family="Arial" font-size="14.00" fill="#cfffac">entity.js</text>
</g>
<!-- being.js&#45;&gt;entity.js -->
<g id="edge1" class="edge">
<title>being.js&#45;&gt;entity.js</title>
<path fill="none" stroke="#757575" d="M764.1813,-51.5C772.3496,-51.5 781.1906,-51.5 789.7168,-51.5"/>
<polygon fill="#757575" stroke="#757575" points="789.8946,-55.0001 799.8946,-51.5 789.8945,-48.0001 789.8946,-55.0001"/>
</g>
<!-- beings.js -->
<g id="node3" class="node">
<title>beings.js</title>
<path fill="none" stroke="#c6c5fe" d="M653.3333,-104C653.3333,-104 594.6667,-104 594.6667,-104 590.8333,-104 587,-100.1667 587,-96.3333 587,-96.3333 587,-88.6667 587,-88.6667 587,-84.8333 590.8333,-81 594.6667,-81 594.6667,-81 653.3333,-81 653.3333,-81 657.1667,-81 661,-84.8333 661,-88.6667 661,-88.6667 661,-96.3333 661,-96.3333 661,-100.1667 657.1667,-104 653.3333,-104"/>
<text text-anchor="middle" x="624" y="-88.8" font-family="Arial" font-size="14.00" fill="#c6c5fe">beings.js</text>
</g>
<!-- beings.js&#45;&gt;being.js -->
<g id="edge2" class="edge">
<title>beings.js&#45;&gt;being.js</title>
<path fill="none" stroke="#757575" d="M653.9496,-80.9701C665.4064,-76.5595 678.6558,-71.4588 690.8781,-66.7535"/>
<polygon fill="#757575" stroke="#757575" points="692.3313,-69.9445 700.4062,-63.0854 689.8164,-63.4119 692.3313,-69.9445"/>
</g>
<!-- const.js -->
<g id="node4" class="node">
<title>const.js</title>
<path fill="none" stroke="#cfffac" d="M649.3333,-221C649.3333,-221 598.6667,-221 598.6667,-221 594.8333,-221 591,-217.1667 591,-213.3333 591,-213.3333 591,-205.6667 591,-205.6667 591,-201.8333 594.8333,-198 598.6667,-198 598.6667,-198 649.3333,-198 649.3333,-198 653.1667,-198 657,-201.8333 657,-205.6667 657,-205.6667 657,-213.3333 657,-213.3333 657,-217.1667 653.1667,-221 649.3333,-221"/>
<text text-anchor="middle" x="624" y="-205.8" font-family="Arial" font-size="14.00" fill="#cfffac">const.js</text>
</g>
<!-- game.js -->
<g id="node5" class="node">
<title>game.js</title>
<path fill="none" stroke="#c6c5fe" d="M187.8333,-321C187.8333,-321 135.1667,-321 135.1667,-321 131.3333,-321 127.5,-317.1667 127.5,-313.3333 127.5,-313.3333 127.5,-305.6667 127.5,-305.6667 127.5,-301.8333 131.3333,-298 135.1667,-298 135.1667,-298 187.8333,-298 187.8333,-298 191.6667,-298 195.5,-301.8333 195.5,-305.6667 195.5,-305.6667 195.5,-313.3333 195.5,-313.3333 195.5,-317.1667 191.6667,-321 187.8333,-321"/>
<text text-anchor="middle" x="161.5" y="-305.8" font-family="Arial" font-size="14.00" fill="#c6c5fe">game.js</text>
</g>
<!-- game.js&#45;&gt;const.js -->
<g id="edge3" class="edge">
<title>game.js&#45;&gt;const.js</title>
<path fill="none" stroke="#757575" d="M195.6583,-316.1093C266.1406,-328.0153 431.1216,-346.8307 551,-289.5 577.9673,-276.6032 599.5942,-248.8705 612.113,-229.7032"/>
<polygon fill="#757575" stroke="#757575" points="615.1692,-231.4173 617.5105,-221.0843 609.2366,-227.702 615.1692,-231.4173"/>
</g>
<!-- util.js -->
<g id="node6" class="node">
<title>util.js</title>
<path fill="none" stroke="#cfffac" d="M535.3333,-262C535.3333,-262 496.6667,-262 496.6667,-262 492.8333,-262 489,-258.1667 489,-254.3333 489,-254.3333 489,-246.6667 489,-246.6667 489,-242.8333 492.8333,-239 496.6667,-239 496.6667,-239 535.3333,-239 535.3333,-239 539.1667,-239 543,-242.8333 543,-246.6667 543,-246.6667 543,-254.3333 543,-254.3333 543,-258.1667 539.1667,-262 535.3333,-262"/>
<text text-anchor="middle" x="516" y="-246.8" font-family="Arial" font-size="14.00" fill="#cfffac">util.js</text>
</g>
<!-- game.js&#45;&gt;util.js -->
<g id="edge4" class="edge">
<title>game.js&#45;&gt;util.js</title>
<path fill="none" stroke="#757575" d="M195.8131,-303.7892C262.585,-292.6763 409.4895,-268.2267 478.6293,-256.7197"/>
<polygon fill="#757575" stroke="#757575" points="479.3513,-260.1477 488.641,-255.0534 478.2021,-253.2427 479.3513,-260.1477"/>
</g>
<!-- world.js -->
<g id="node7" class="node">
<title>world.js</title>
<path fill="none" stroke="#c6c5fe" d="M314.3333,-221C314.3333,-221 264.6667,-221 264.6667,-221 260.8333,-221 257,-217.1667 257,-213.3333 257,-213.3333 257,-205.6667 257,-205.6667 257,-201.8333 260.8333,-198 264.6667,-198 264.6667,-198 314.3333,-198 314.3333,-198 318.1667,-198 322,-201.8333 322,-205.6667 322,-205.6667 322,-213.3333 322,-213.3333 322,-217.1667 318.1667,-221 314.3333,-221"/>
<text text-anchor="middle" x="289.5" y="-205.8" font-family="Arial" font-size="14.00" fill="#c6c5fe">world.js</text>
</g>
<!-- game.js&#45;&gt;world.js -->
<g id="edge5" class="edge">
<title>game.js&#45;&gt;world.js</title>
<path fill="none" stroke="#757575" d="M195.6859,-300.8136C204.374,-297.721 213.3945,-293.6795 221,-288.5 244.1263,-272.7503 264.2362,-247.3282 276.5785,-229.5901"/>
<polygon fill="#757575" stroke="#757575" points="279.6102,-231.3544 282.2996,-221.1065 273.8066,-227.4405 279.6102,-231.3544"/>
</g>
<!-- world.js&#45;&gt;const.js -->
<g id="edge19" class="edge">
<title>world.js&#45;&gt;const.js</title>
<path fill="none" stroke="#757575" d="M308.327,-221.1624C351.9443,-246.6272 462.9157,-302.458 551,-270.5 573.7936,-262.2302 594.4523,-243.3836 607.9282,-228.8113"/>
<polygon fill="#757575" stroke="#757575" points="610.6204,-231.0507 614.6438,-221.2496 605.3865,-226.4024 610.6204,-231.0507"/>
</g>
<!-- world.js&#45;&gt;util.js -->
<g id="edge22" class="edge">
<title>world.js&#45;&gt;util.js</title>
<path fill="none" stroke="#757575" d="M322.435,-215.4618C364.0081,-222.9871 435.3306,-235.8976 478.8193,-243.7697"/>
<polygon fill="#757575" stroke="#757575" points="478.2487,-247.2232 488.7122,-245.5605 479.4956,-240.3352 478.2487,-247.2232"/>
</g>
<!-- xy.js -->
<g id="node11" class="node">
<title>xy.js</title>
<path fill="none" stroke="#cfffac" d="M643.3333,-63C643.3333,-63 604.6667,-63 604.6667,-63 600.8333,-63 597,-59.1667 597,-55.3333 597,-55.3333 597,-47.6667 597,-47.6667 597,-43.8333 600.8333,-40 604.6667,-40 604.6667,-40 643.3333,-40 643.3333,-40 647.1667,-40 651,-43.8333 651,-47.6667 651,-47.6667 651,-55.3333 651,-55.3333 651,-59.1667 647.1667,-63 643.3333,-63"/>
<text text-anchor="middle" x="624" y="-47.8" font-family="Arial" font-size="14.00" fill="#cfffac">xy.js</text>
</g>
<!-- world.js&#45;&gt;xy.js -->
<g id="edge23" class="edge">
<title>world.js&#45;&gt;xy.js</title>
<path fill="none" stroke="#757575" d="M301.1774,-197.6558C329.2467,-170.0048 403.9117,-101.2216 481,-70.5 515.0852,-56.9162 556.9925,-52.6574 586.6051,-51.4992"/>
<polygon fill="#757575" stroke="#757575" points="587.0267,-54.9886 596.9215,-51.2013 586.8246,-47.9915 587.0267,-54.9886"/>
</g>
<!-- mapGen.js -->
<g id="node12" class="node">
<title>mapGen.js</title>
<path fill="none" stroke="#c6c5fe" d="M437.3333,-192C437.3333,-192 365.6667,-192 365.6667,-192 361.8333,-192 358,-188.1667 358,-184.3333 358,-184.3333 358,-176.6667 358,-176.6667 358,-172.8333 361.8333,-169 365.6667,-169 365.6667,-169 437.3333,-169 437.3333,-169 441.1667,-169 445,-172.8333 445,-176.6667 445,-176.6667 445,-184.3333 445,-184.3333 445,-188.1667 441.1667,-192 437.3333,-192"/>
<text text-anchor="middle" x="401.5" y="-176.8" font-family="Arial" font-size="14.00" fill="#c6c5fe">mapGen.js</text>
</g>
<!-- world.js&#45;&gt;mapGen.js -->
<g id="edge20" class="edge">
<title>world.js&#45;&gt;mapGen.js</title>
<path fill="none" stroke="#757575" d="M322.1961,-201.034C330.265,-198.9448 339.1195,-196.6521 347.8954,-194.3798"/>
<polygon fill="#757575" stroke="#757575" points="348.9208,-197.7298 357.7242,-191.8348 347.1661,-190.9532 348.9208,-197.7298"/>
</g>
<!-- player.js -->
<g id="node14" class="node">
<title>player.js</title>
<path fill="none" stroke="#c6c5fe" d="M543.3333,-23C543.3333,-23 488.6667,-23 488.6667,-23 484.8333,-23 481,-19.1667 481,-15.3333 481,-15.3333 481,-7.6667 481,-7.6667 481,-3.8333 484.8333,0 488.6667,0 488.6667,0 543.3333,0 543.3333,0 547.1667,0 551,-3.8333 551,-7.6667 551,-7.6667 551,-15.3333 551,-15.3333 551,-19.1667 547.1667,-23 543.3333,-23"/>
<text text-anchor="middle" x="516" y="-7.8" font-family="Arial" font-size="14.00" fill="#c6c5fe">player.js</text>
</g>
<!-- world.js&#45;&gt;player.js -->
<g id="edge21" class="edge">
<title>world.js&#45;&gt;player.js</title>
<path fill="none" stroke="#757575" d="M290.3702,-197.5916C293.3674,-165.9225 306.1581,-79.2039 358,-37.5 389.5062,-12.155 436.2165,-7.2175 470.6827,-7.6793"/>
<polygon fill="#757575" stroke="#757575" points="470.8577,-11.1858 480.9556,-7.9793 471.0621,-4.1887 470.8577,-11.1858"/>
</g>
<!-- index.js -->
<g id="node8" class="node">
<title>index.js</title>
<path fill="none" stroke="#c6c5fe" d="M58.3333,-300C58.3333,-300 7.6667,-300 7.6667,-300 3.8333,-300 0,-296.1667 0,-292.3333 0,-292.3333 0,-284.6667 0,-284.6667 0,-280.8333 3.8333,-277 7.6667,-277 7.6667,-277 58.3333,-277 58.3333,-277 62.1667,-277 66,-280.8333 66,-284.6667 66,-284.6667 66,-292.3333 66,-292.3333 66,-296.1667 62.1667,-300 58.3333,-300"/>
<text text-anchor="middle" x="33" y="-284.8" font-family="Arial" font-size="14.00" fill="#c6c5fe">index.js</text>
</g>
<!-- index.js&#45;&gt;game.js -->
<g id="edge6" class="edge">
<title>index.js&#45;&gt;game.js</title>
<path fill="none" stroke="#757575" d="M66.0919,-293.908C81.6105,-296.4441 100.3289,-299.5032 117.0605,-302.2375"/>
<polygon fill="#757575" stroke="#757575" points="116.7416,-305.7317 127.1752,-303.8905 117.8706,-298.8234 116.7416,-305.7317"/>
</g>
<!-- styles/index.css -->
<g id="node9" class="node">
<title>styles/index.css</title>
<path fill="none" stroke="#cfffac" d="M213.3333,-280C213.3333,-280 109.6667,-280 109.6667,-280 105.8333,-280 102,-276.1667 102,-272.3333 102,-272.3333 102,-264.6667 102,-264.6667 102,-260.8333 105.8333,-257 109.6667,-257 109.6667,-257 213.3333,-257 213.3333,-257 217.1667,-257 221,-260.8333 221,-264.6667 221,-264.6667 221,-272.3333 221,-272.3333 221,-276.1667 217.1667,-280 213.3333,-280"/>
<text text-anchor="middle" x="161.5" y="-264.8" font-family="Arial" font-size="14.00" fill="#cfffac">styles/index.css</text>
</g>
<!-- index.js&#45;&gt;styles/index.css -->
<g id="edge7" class="edge">
<title>index.js&#45;&gt;styles/index.css</title>
<path fill="none" stroke="#757575" d="M66.0919,-283.3495C74.0342,-282.1134 82.8146,-280.7468 91.7379,-279.3579"/>
<polygon fill="#757575" stroke="#757575" points="92.4934,-282.7825 101.8362,-277.7862 91.4168,-275.8658 92.4934,-282.7825"/>
</g>
<!-- map.js -->
<g id="node10" class="node">
<title>map.js</title>
<path fill="none" stroke="#c6c5fe" d="M537.8333,-103C537.8333,-103 494.1667,-103 494.1667,-103 490.3333,-103 486.5,-99.1667 486.5,-95.3333 486.5,-95.3333 486.5,-87.6667 486.5,-87.6667 486.5,-83.8333 490.3333,-80 494.1667,-80 494.1667,-80 537.8333,-80 537.8333,-80 541.6667,-80 545.5,-83.8333 545.5,-87.6667 545.5,-87.6667 545.5,-95.3333 545.5,-95.3333 545.5,-99.1667 541.6667,-103 537.8333,-103"/>
<text text-anchor="middle" x="516" y="-87.8" font-family="Arial" font-size="14.00" fill="#c6c5fe">map.js</text>
</g>
<!-- map.js&#45;&gt;beings.js -->
<g id="edge8" class="edge">
<title>map.js&#45;&gt;beings.js</title>
<path fill="none" stroke="#757575" d="M545.5115,-91.7733C555.1666,-91.8627 566.1468,-91.9643 576.7717,-92.0627"/>
<polygon fill="#757575" stroke="#757575" points="576.7627,-95.5627 586.7947,-92.1555 576.8276,-88.563 576.7627,-95.5627"/>
</g>
<!-- map.js&#45;&gt;const.js -->
<g id="edge9" class="edge">
<title>map.js&#45;&gt;const.js</title>
<path fill="none" stroke="#757575" d="M526.7503,-103.2457C545.3492,-123.5667 583.7025,-165.4712 606.2891,-190.1492"/>
<polygon fill="#757575" stroke="#757575" points="603.9597,-192.7881 613.2932,-197.8018 609.1234,-188.062 603.9597,-192.7881"/>
</g>
<!-- map.js&#45;&gt;xy.js -->
<g id="edge10" class="edge">
<title>map.js&#45;&gt;xy.js</title>
<path fill="none" stroke="#757575" d="M545.5115,-80.5698C558.3771,-75.8048 573.5957,-70.1682 587.1912,-65.1329"/>
<polygon fill="#757575" stroke="#757575" points="588.5852,-68.349 596.747,-61.5937 586.1539,-61.7848 588.5852,-68.349"/>
</g>
<!-- mapGen.js&#45;&gt;beings.js -->
<g id="edge11" class="edge">
<title>mapGen.js&#45;&gt;beings.js</title>
<path fill="none" stroke="#757575" d="M430.588,-168.9955C470.2317,-153.3162 541.3253,-125.1983 585.3949,-107.7685"/>
<polygon fill="#757575" stroke="#757575" points="586.893,-110.9399 594.9049,-104.0073 584.3185,-104.4305 586.893,-110.9399"/>
</g>
<!-- mapGen.js&#45;&gt;const.js -->
<g id="edge12" class="edge">
<title>mapGen.js&#45;&gt;const.js</title>
<path fill="none" stroke="#757575" d="M445.2891,-180.2417C475.2439,-180.6993 515.7569,-182.5669 551,-188.5 560.8449,-190.1574 571.2509,-192.6709 581.0252,-195.3893"/>
<polygon fill="#757575" stroke="#757575" points="580.3529,-198.8387 590.9324,-198.2691 582.3068,-192.1169 580.3529,-198.8387"/>
</g>
<!-- mapGen.js&#45;&gt;util.js -->
<g id="edge15" class="edge">
<title>mapGen.js&#45;&gt;util.js</title>
<path fill="none" stroke="#757575" d="M420.0947,-192.0475C436.1819,-202.017 460.0826,-216.7791 481,-229.5 483.225,-230.8531 485.5325,-232.2506 487.8529,-233.6516"/>
<polygon fill="#757575" stroke="#757575" points="486.3466,-236.83 496.7194,-238.9878 489.9562,-230.8324 486.3466,-236.83"/>
</g>
<!-- mapGen.js&#45;&gt;map.js -->
<g id="edge13" class="edge">
<title>mapGen.js&#45;&gt;map.js</title>
<path fill="none" stroke="#757575" d="M415.7562,-168.9834C431.5854,-156.2475 457.9477,-135.1893 481,-117.5 484.5131,-114.8042 488.2482,-111.9828 491.9205,-109.2339"/>
<polygon fill="#757575" stroke="#757575" points="494.3063,-111.8214 500.2411,-103.0448 490.1285,-106.2048 494.3063,-111.8214"/>
</g>
<!-- tile.js -->
<g id="node13" class="node">
<title>tile.js</title>
<path fill="none" stroke="#c6c5fe" d="M535.3333,-221C535.3333,-221 496.6667,-221 496.6667,-221 492.8333,-221 489,-217.1667 489,-213.3333 489,-213.3333 489,-205.6667 489,-205.6667 489,-201.8333 492.8333,-198 496.6667,-198 496.6667,-198 535.3333,-198 535.3333,-198 539.1667,-198 543,-201.8333 543,-205.6667 543,-205.6667 543,-213.3333 543,-213.3333 543,-217.1667 539.1667,-221 535.3333,-221"/>
<text text-anchor="middle" x="516" y="-205.8" font-family="Arial" font-size="14.00" fill="#c6c5fe">tile.js</text>
</g>
<!-- mapGen.js&#45;&gt;tile.js -->
<g id="edge14" class="edge">
<title>mapGen.js&#45;&gt;tile.js</title>
<path fill="none" stroke="#757575" d="M445.1142,-191.5464C456.2253,-194.3605 468.0639,-197.359 478.8204,-200.0833"/>
<polygon fill="#757575" stroke="#757575" points="478.1893,-203.5339 488.7426,-202.5964 479.908,-196.7482 478.1893,-203.5339"/>
</g>
<!-- tile.js&#45;&gt;const.js -->
<g id="edge18" class="edge">
<title>tile.js&#45;&gt;const.js</title>
<path fill="none" stroke="#757575" d="M543.253,-209.5C554.579,-209.5 568.0052,-209.5 580.6253,-209.5"/>
<polygon fill="#757575" stroke="#757575" points="580.9729,-213.0001 590.9728,-209.5 580.9728,-206.0001 580.9729,-213.0001"/>
</g>
<!-- player.js&#45;&gt;being.js -->
<g id="edge16" class="edge">
<title>player.js&#45;&gt;being.js</title>
<path fill="none" stroke="#757575" d="M551.1387,-14.4849C580.6749,-17.3794 623.8924,-22.5185 661,-30.5 669.5028,-32.3289 678.4711,-34.6975 687.0361,-37.182"/>
<polygon fill="#757575" stroke="#757575" points="686.2695,-40.606 696.8535,-40.1264 688.2805,-33.9011 686.2695,-40.606"/>
</g>
<!-- player.js&#45;&gt;xy.js -->
<g id="edge17" class="edge">
<title>player.js&#45;&gt;xy.js</title>
<path fill="none" stroke="#757575" d="M547.2381,-23.0697C559.7483,-27.7031 574.2535,-33.0754 587.2643,-37.8942"/>
<polygon fill="#757575" stroke="#757575" points="586.2716,-41.2588 596.8647,-41.4499 588.7028,-34.6945 586.2716,-41.2588"/>
</g>
</g>
</svg>
