<?xml version="1.0" encoding="UTF-8" standalone="no"?>
<!DOCTYPE svg PUBLIC "-//W3C//DTD SVG 1.1//EN"
 "http://www.w3.org/Graphics/SVG/1.1/DTD/svg11.dtd">
<!-- Generated by graphviz version 2.40.1 (20161225.0304)
 -->
<!-- Title: G Pages: 1 -->
<svg width="897pt" height="371pt"
 viewBox="0.00 0.00 897.20 371.33" xmlns="http://www.w3.org/2000/svg" xmlns:xlink="http://www.w3.org/1999/xlink">
<g id="graph0" class="graph" transform="scale(1 1) rotate(0) translate(21.6 349.7303)">
<title>G</title>
<polygon fill="#111111" stroke="transparent" points="-21.6,21.6 -21.6,-349.7303 875.6,-349.7303 875.6,21.6 -21.6,21.6"/>
<!-- being.js -->
<g id="node1" class="node">
<title>being.js</title>
<path fill="none" stroke="#c6c5fe" d="M745.3333,-63C745.3333,-63 693.6667,-63 693.6667,-63 689.8333,-63 686,-59.1667 686,-55.3333 686,-55.3333 686,-47.6667 686,-47.6667 686,-43.8333 689.8333,-40 693.6667,-40 693.6667,-40 745.3333,-40 745.3333,-40 749.1667,-40 753,-43.8333 753,-47.6667 753,-47.6667 753,-55.3333 753,-55.3333 753,-59.1667 749.1667,-63 745.3333,-63"/>
<text text-anchor="middle" x="719.5" y="-47.8" font-family="Arial" font-size="14.00" fill="#c6c5fe">being.js</text>
</g>
<!-- entity.js -->
<g id="node2" class="node">
<title>entity.js</title>
<path fill="none" stroke="#cfffac" d="M846.3333,-63C846.3333,-63 796.6667,-63 796.6667,-63 792.8333,-63 789,-59.1667 789,-55.3333 789,-55.3333 789,-47.6667 789,-47.6667 789,-43.8333 792.8333,-40 796.6667,-40 796.6667,-40 846.3333,-40 846.3333,-40 850.1667,-40 854,-43.8333 854,-47.6667 854,-47.6667 854,-55.3333 854,-55.3333 854,-59.1667 850.1667,-63 846.3333,-63"/>
<text text-anchor="middle" x="821.5" y="-47.8" font-family="Arial" font-size="14.00" fill="#cfffac">entity.js</text>
</g>
<!-- being.js&#45;&gt;entity.js -->
<g id="edge1" class="edge">
<title>being.js&#45;&gt;entity.js</title>
<path fill="none" stroke="#757575" d="M753.1813,-51.5C761.3496,-51.5 770.1906,-51.5 778.7168,-51.5"/>
<polygon fill="#757575" stroke="#757575" points="778.8946,-55.0001 788.8946,-51.5 778.8945,-48.0001 778.8946,-55.0001"/>
</g>
<!-- beings.js -->
<g id="node3" class="node">
<title>beings.js</title>
<path fill="none" stroke="#c6c5fe" d="M642.3333,-104C642.3333,-104 583.6667,-104 583.6667,-104 579.8333,-104 576,-100.1667 576,-96.3333 576,-96.3333 576,-88.6667 576,-88.6667 576,-84.8333 579.8333,-81 583.6667,-81 583.6667,-81 642.3333,-81 642.3333,-81 646.1667,-81 650,-84.8333 650,-88.6667 650,-88.6667 650,-96.3333 650,-96.3333 650,-100.1667 646.1667,-104 642.3333,-104"/>
<text text-anchor="middle" x="613" y="-88.8" font-family="Arial" font-size="14.00" fill="#c6c5fe">beings.js</text>
</g>
<!-- beings.js&#45;&gt;being.js -->
<g id="edge2" class="edge">
<title>beings.js&#45;&gt;being.js</title>
<path fill="none" stroke="#757575" d="M642.9496,-80.9701C654.4064,-76.5595 667.6558,-71.4588 679.8781,-66.7535"/>
<polygon fill="#757575" stroke="#757575" points="681.3313,-69.9445 689.4062,-63.0854 678.8164,-63.4119 681.3313,-69.9445"/>
</g>
<!-- const.js -->
<g id="node4" class="node">
<title>const.js</title>
<path fill="none" stroke="#cfffac" d="M638.3333,-221C638.3333,-221 587.6667,-221 587.6667,-221 583.8333,-221 580,-217.1667 580,-213.3333 580,-213.3333 580,-205.6667 580,-205.6667 580,-201.8333 583.8333,-198 587.6667,-198 587.6667,-198 638.3333,-198 638.3333,-198 642.1667,-198 646,-201.8333 646,-205.6667 646,-205.6667 646,-213.3333 646,-213.3333 646,-217.1667 642.1667,-221 638.3333,-221"/>
<text text-anchor="middle" x="613" y="-205.8" font-family="Arial" font-size="14.00" fill="#cfffac">const.js</text>
</g>
<!-- game.js -->
<g id="node5" class="node">
<title>game.js</title>
<path fill="none" stroke="#c6c5fe" d="M187.8333,-321C187.8333,-321 135.1667,-321 135.1667,-321 131.3333,-321 127.5,-317.1667 127.5,-313.3333 127.5,-313.3333 127.5,-305.6667 127.5,-305.6667 127.5,-301.8333 131.3333,-298 135.1667,-298 135.1667,-298 187.8333,-298 187.8333,-298 191.6667,-298 195.5,-301.8333 195.5,-305.6667 195.5,-305.6667 195.5,-313.3333 195.5,-313.3333 195.5,-317.1667 191.6667,-321 187.8333,-321"/>
<text text-anchor="middle" x="161.5" y="-305.8" font-family="Arial" font-size="14.00" fill="#c6c5fe">game.js</text>
</g>
<!-- game.js&#45;&gt;const.js -->
<g id="edge3" class="edge">
<title>game.js&#45;&gt;const.js</title>
<path fill="none" stroke="#757575" d="M195.7077,-315.9394C264.7055,-327.215 423.8635,-344.4523 540,-289.5 567.0204,-276.7148 588.6344,-248.9551 601.1359,-229.7513"/>
<polygon fill="#757575" stroke="#757575" points="604.2007,-231.4511 606.5247,-221.1143 598.2618,-227.7457 604.2007,-231.4511"/>
</g>
<!-- util.js -->
<g id="node6" class="node">
<title>util.js</title>
<path fill="none" stroke="#cfffac" d="M529.8333,-262C529.8333,-262 491.1667,-262 491.1667,-262 487.3333,-262 483.5,-258.1667 483.5,-254.3333 483.5,-254.3333 483.5,-246.6667 483.5,-246.6667 483.5,-242.8333 487.3333,-239 491.1667,-239 491.1667,-239 529.8333,-239 529.8333,-239 533.6667,-239 537.5,-242.8333 537.5,-246.6667 537.5,-246.6667 537.5,-254.3333 537.5,-254.3333 537.5,-258.1667 533.6667,-262 529.8333,-262"/>
<text text-anchor="middle" x="510.5" y="-246.8" font-family="Arial" font-size="14.00" fill="#cfffac">util.js</text>
</g>
<!-- game.js&#45;&gt;util.js -->
<g id="edge4" class="edge">
<title>game.js&#45;&gt;util.js</title>
<path fill="none" stroke="#757575" d="M195.599,-303.7354C261.3459,-292.6206 405.1536,-268.3093 473.2854,-256.7913"/>
<polygon fill="#757575" stroke="#757575" points="473.8822,-260.2401 483.1589,-255.1221 472.7153,-253.3381 473.8822,-260.2401"/>
</g>
<!-- world.js -->
<g id="node7" class="node">
<title>world.js</title>
<path fill="none" stroke="#c6c5fe" d="M314.3333,-221C314.3333,-221 264.6667,-221 264.6667,-221 260.8333,-221 257,-217.1667 257,-213.3333 257,-213.3333 257,-205.6667 257,-205.6667 257,-201.8333 260.8333,-198 264.6667,-198 264.6667,-198 314.3333,-198 314.3333,-198 318.1667,-198 322,-201.8333 322,-205.6667 322,-205.6667 322,-213.3333 322,-213.3333 322,-217.1667 318.1667,-221 314.3333,-221"/>
<text text-anchor="middle" x="289.5" y="-205.8" font-family="Arial" font-size="14.00" fill="#c6c5fe">world.js</text>
</g>
<!-- game.js&#45;&gt;world.js -->
<g id="edge5" class="edge">
<title>game.js&#45;&gt;world.js</title>
<path fill="none" stroke="#757575" d="M195.7085,-301.4798C204.3964,-298.5326 213.4112,-294.6194 221,-289.5 244.4926,-273.6518 264.6465,-247.6714 276.8938,-229.6356"/>
<polygon fill="#757575" stroke="#757575" points="279.9861,-231.3031 282.5534,-221.024 274.1363,-227.4586 279.9861,-231.3031"/>
</g>
<!-- world.js&#45;&gt;const.js -->
<g id="edge18" class="edge">
<title>world.js&#45;&gt;const.js</title>
<path fill="none" stroke="#757575" d="M307.5144,-221.1555C349.2533,-246.6214 455.4713,-302.5517 540,-271.5 563.0461,-263.034 583.7925,-243.708 597.2251,-228.8663"/>
<polygon fill="#757575" stroke="#757575" points="599.9869,-231.024 603.9034,-221.1796 594.7027,-226.433 599.9869,-231.024"/>
</g>
<!-- world.js&#45;&gt;util.js -->
<g id="edge21" class="edge">
<title>world.js&#45;&gt;util.js</title>
<path fill="none" stroke="#757575" d="M322.1093,-215.5497C362.485,-223.0402 431.0897,-235.7678 473.426,-243.622"/>
<polygon fill="#757575" stroke="#757575" points="472.8612,-247.0769 483.3319,-245.4598 474.1381,-240.1943 472.8612,-247.0769"/>
</g>
<!-- xy.js -->
<g id="node11" class="node">
<title>xy.js</title>
<path fill="none" stroke="#cfffac" d="M632.3333,-63C632.3333,-63 593.6667,-63 593.6667,-63 589.8333,-63 586,-59.1667 586,-55.3333 586,-55.3333 586,-47.6667 586,-47.6667 586,-43.8333 589.8333,-40 593.6667,-40 593.6667,-40 632.3333,-40 632.3333,-40 636.1667,-40 640,-43.8333 640,-47.6667 640,-47.6667 640,-55.3333 640,-55.3333 640,-59.1667 636.1667,-63 632.3333,-63"/>
<text text-anchor="middle" x="613" y="-47.8" font-family="Arial" font-size="14.00" fill="#cfffac">xy.js</text>
</g>
<!-- world.js&#45;&gt;xy.js -->
<g id="edge22" class="edge">
<title>world.js&#45;&gt;xy.js</title>
<path fill="none" stroke="#757575" d="M301.1999,-197.7116C329.3176,-170.1813 404.0797,-101.6399 481,-70.5 511.4083,-58.1897 548.5929,-53.686 575.7373,-52.1184"/>
<polygon fill="#757575" stroke="#757575" points="576.152,-55.6028 585.977,-51.6379 575.8239,-48.6105 576.152,-55.6028"/>
</g>
<!-- mapGen.js -->
<g id="node12" class="node">
<title>mapGen.js</title>
<path fill="none" stroke="#c6c5fe" d="M437.3333,-192C437.3333,-192 365.6667,-192 365.6667,-192 361.8333,-192 358,-188.1667 358,-184.3333 358,-184.3333 358,-176.6667 358,-176.6667 358,-172.8333 361.8333,-169 365.6667,-169 365.6667,-169 437.3333,-169 437.3333,-169 441.1667,-169 445,-172.8333 445,-176.6667 445,-176.6667 445,-184.3333 445,-184.3333 445,-188.1667 441.1667,-192 437.3333,-192"/>
<text text-anchor="middle" x="401.5" y="-176.8" font-family="Arial" font-size="14.00" fill="#c6c5fe">mapGen.js</text>
</g>
<!-- world.js&#45;&gt;mapGen.js -->
<g id="edge19" class="edge">
<title>world.js&#45;&gt;mapGen.js</title>
<path fill="none" stroke="#757575" d="M322.1961,-201.034C330.265,-198.9448 339.1195,-196.6521 347.8954,-194.3798"/>
<polygon fill="#757575" stroke="#757575" points="348.9208,-197.7298 357.7242,-191.8348 347.1661,-190.9532 348.9208,-197.7298"/>
</g>
<!-- player.js -->
<g id="node14" class="node">
<title>player.js</title>
<path fill="none" stroke="#c6c5fe" d="M428.8333,-23C428.8333,-23 374.1667,-23 374.1667,-23 370.3333,-23 366.5,-19.1667 366.5,-15.3333 366.5,-15.3333 366.5,-7.6667 366.5,-7.6667 366.5,-3.8333 370.3333,0 374.1667,0 374.1667,0 428.8333,0 428.8333,0 432.6667,0 436.5,-3.8333 436.5,-7.6667 436.5,-7.6667 436.5,-15.3333 436.5,-15.3333 436.5,-19.1667 432.6667,-23 428.8333,-23"/>
<text text-anchor="middle" x="401.5" y="-7.8" font-family="Arial" font-size="14.00" fill="#c6c5fe">player.js</text>
</g>
<!-- world.js&#45;&gt;player.js -->
<g id="edge20" class="edge">
<title>world.js&#45;&gt;player.js</title>
<path fill="none" stroke="#757575" d="M291.4855,-197.7132C297.0504,-167.781 315.2734,-87.6607 358,-37.5 360.7599,-34.2599 364.03,-31.316 367.519,-28.672"/>
<polygon fill="#757575" stroke="#757575" points="369.5568,-31.5197 375.92,-23.0486 365.663,-25.7026 369.5568,-31.5197"/>
</g>
<!-- index.js -->
<g id="node8" class="node">
<title>index.js</title>
<path fill="none" stroke="#c6c5fe" d="M58.3333,-300C58.3333,-300 7.6667,-300 7.6667,-300 3.8333,-300 0,-296.1667 0,-292.3333 0,-292.3333 0,-284.6667 0,-284.6667 0,-280.8333 3.8333,-277 7.6667,-277 7.6667,-277 58.3333,-277 58.3333,-277 62.1667,-277 66,-280.8333 66,-284.6667 66,-284.6667 66,-292.3333 66,-292.3333 66,-296.1667 62.1667,-300 58.3333,-300"/>
<text text-anchor="middle" x="33" y="-284.8" font-family="Arial" font-size="14.00" fill="#c6c5fe">index.js</text>
</g>
<!-- index.js&#45;&gt;game.js -->
<g id="edge6" class="edge">
<title>index.js&#45;&gt;game.js</title>
<path fill="none" stroke="#757575" d="M66.0919,-293.908C81.6105,-296.4441 100.3289,-299.5032 117.0605,-302.2375"/>
<polygon fill="#757575" stroke="#757575" points="116.7416,-305.7317 127.1752,-303.8905 117.8706,-298.8234 116.7416,-305.7317"/>
</g>
<!-- styles/index.css -->
<g id="node9" class="node">
<title>styles/index.css</title>
<path fill="none" stroke="#cfffac" d="M213.3333,-280C213.3333,-280 109.6667,-280 109.6667,-280 105.8333,-280 102,-276.1667 102,-272.3333 102,-272.3333 102,-264.6667 102,-264.6667 102,-260.8333 105.8333,-257 109.6667,-257 109.6667,-257 213.3333,-257 213.3333,-257 217.1667,-257 221,-260.8333 221,-264.6667 221,-264.6667 221,-272.3333 221,-272.3333 221,-276.1667 217.1667,-280 213.3333,-280"/>
<text text-anchor="middle" x="161.5" y="-264.8" font-family="Arial" font-size="14.00" fill="#cfffac">styles/index.css</text>
</g>
<!-- index.js&#45;&gt;styles/index.css -->
<g id="edge7" class="edge">
<title>index.js&#45;&gt;styles/index.css</title>
<path fill="none" stroke="#757575" d="M66.0919,-283.3495C74.0342,-282.1134 82.8146,-280.7468 91.7379,-279.3579"/>
<polygon fill="#757575" stroke="#757575" points="92.4934,-282.7825 101.8362,-277.7862 91.4168,-275.8658 92.4934,-282.7825"/>
</g>
<!-- map.js -->
<g id="node10" class="node">
<title>map.js</title>
<path fill="none" stroke="#c6c5fe" d="M532.3333,-103C532.3333,-103 488.6667,-103 488.6667,-103 484.8333,-103 481,-99.1667 481,-95.3333 481,-95.3333 481,-87.6667 481,-87.6667 481,-83.8333 484.8333,-80 488.6667,-80 488.6667,-80 532.3333,-80 532.3333,-80 536.1667,-80 540,-83.8333 540,-87.6667 540,-87.6667 540,-95.3333 540,-95.3333 540,-99.1667 536.1667,-103 532.3333,-103"/>
<text text-anchor="middle" x="510.5" y="-87.8" font-family="Arial" font-size="14.00" fill="#c6c5fe">map.js</text>
</g>
<!-- map.js&#45;&gt;beings.js -->
<g id="edge8" class="edge">
<title>map.js&#45;&gt;beings.js</title>
<path fill="none" stroke="#757575" d="M540.1472,-91.7892C548.1366,-91.8672 556.9832,-91.9535 565.6781,-92.0383"/>
<polygon fill="#757575" stroke="#757575" points="565.7214,-95.5388 575.7551,-92.1366 565.7897,-88.5391 565.7214,-95.5388"/>
</g>
<!-- map.js&#45;&gt;const.js -->
<g id="edge9" class="edge">
<title>map.js&#45;&gt;const.js</title>
<path fill="none" stroke="#757575" d="M520.7028,-103.2457C538.3546,-123.5667 574.7547,-165.4712 596.1911,-190.1492"/>
<polygon fill="#757575" stroke="#757575" points="593.6382,-192.5475 602.8384,-197.8018 598.9229,-187.957 593.6382,-192.5475"/>
</g>
<!-- map.js&#45;&gt;xy.js -->
<g id="edge10" class="edge">
<title>map.js&#45;&gt;xy.js</title>
<path fill="none" stroke="#757575" d="M540.1472,-79.9303C551.418,-75.532 564.3949,-70.4678 576.2452,-65.8433"/>
<polygon fill="#757575" stroke="#757575" points="577.829,-68.9824 585.8723,-62.0864 575.2841,-62.4614 577.829,-68.9824"/>
</g>
<!-- mapGen.js&#45;&gt;beings.js -->
<g id="edge11" class="edge">
<title>mapGen.js&#45;&gt;beings.js</title>
<path fill="none" stroke="#757575" d="M429.1499,-168.9955C466.7545,-153.3492 534.1288,-125.3164 576.0391,-107.8785"/>
<polygon fill="#757575" stroke="#757575" points="577.4551,-111.0803 585.3433,-104.0073 574.766,-104.6174 577.4551,-111.0803"/>
</g>
<!-- mapGen.js&#45;&gt;const.js -->
<g id="edge12" class="edge">
<title>mapGen.js&#45;&gt;const.js</title>
<path fill="none" stroke="#757575" d="M445.1354,-180.5436C472.5448,-181.1809 508.5412,-183.1354 540,-188.5 549.8414,-190.1782 560.2459,-192.7003 570.0199,-195.4204"/>
<polygon fill="#757575" stroke="#757575" points="569.3478,-198.8698 579.9273,-198.2996 571.3013,-192.1479 569.3478,-198.8698"/>
</g>
<!-- mapGen.js&#45;&gt;util.js -->
<g id="edge15" class="edge">
<title>mapGen.js&#45;&gt;util.js</title>
<path fill="none" stroke="#757575" d="M419.4991,-192.0591C437.0128,-203.3064 463.8336,-220.5307 483.8266,-233.3703"/>
<polygon fill="#757575" stroke="#757575" points="482.1685,-236.465 492.4741,-238.9238 485.9511,-230.575 482.1685,-236.465"/>
</g>
<!-- mapGen.js&#45;&gt;map.js -->
<g id="edge13" class="edge">
<title>mapGen.js&#45;&gt;map.js</title>
<path fill="none" stroke="#757575" d="M415.7498,-168.8648C434.1916,-153.8069 466.5258,-127.4055 488.225,-109.6879"/>
<polygon fill="#757575" stroke="#757575" points="490.7144,-112.1738 496.2467,-103.1381 486.2871,-106.7516 490.7144,-112.1738"/>
</g>
<!-- tile.js -->
<g id="node13" class="node">
<title>tile.js</title>
<path fill="none" stroke="#c6c5fe" d="M529.8333,-221C529.8333,-221 491.1667,-221 491.1667,-221 487.3333,-221 483.5,-217.1667 483.5,-213.3333 483.5,-213.3333 483.5,-205.6667 483.5,-205.6667 483.5,-201.8333 487.3333,-198 491.1667,-198 491.1667,-198 529.8333,-198 529.8333,-198 533.6667,-198 537.5,-201.8333 537.5,-205.6667 537.5,-205.6667 537.5,-213.3333 537.5,-213.3333 537.5,-217.1667 533.6667,-221 529.8333,-221"/>
<text text-anchor="middle" x="510.5" y="-205.8" font-family="Arial" font-size="14.00" fill="#c6c5fe">tile.js</text>
</g>
<!-- mapGen.js&#45;&gt;tile.js -->
<g id="edge14" class="edge">
<title>mapGen.js&#45;&gt;tile.js</title>
<path fill="none" stroke="#757575" d="M444.8929,-192.0449C454.2963,-194.5467 464.1604,-197.1711 473.3002,-199.6028"/>
<polygon fill="#757575" stroke="#757575" points="472.6847,-203.0607 483.2484,-202.2496 474.4845,-196.2961 472.6847,-203.0607"/>
</g>
<!-- tile.js&#45;&gt;const.js -->
<g id="edge17" class="edge">
<title>tile.js&#45;&gt;const.js</title>
<path fill="none" stroke="#757575" d="M537.699,-209.5C547.497,-209.5 558.8118,-209.5 569.6444,-209.5"/>
<polygon fill="#757575" stroke="#757575" points="569.8174,-213.0001 579.8174,-209.5 569.8174,-206.0001 569.8174,-213.0001"/>
</g>
<!-- player.js&#45;&gt;being.js -->
<g id="edge16" class="edge">
<title>player.js&#45;&gt;being.js</title>
<path fill="none" stroke="#757575" d="M436.7926,-11.7975C485.2529,-12.7494 574.9328,-16.4618 650,-30.5 658.822,-32.1498 668.1131,-34.5064 676.9299,-37.0491"/>
<polygon fill="#757575" stroke="#757575" points="676.048,-40.4387 686.6325,-39.971 678.0666,-33.736 676.048,-40.4387"/>
</g>
</g>
</svg>
