<?xml version="1.0" encoding="UTF-8" standalone="no"?>
<!DOCTYPE svg PUBLIC "-//W3C//DTD SVG 1.1//EN"
 "http://www.w3.org/Graphics/SVG/1.1/DTD/svg11.dtd">
<!-- Generated by graphviz version 2.40.1 (20161225.0304)
 -->
<!-- Title: G Pages: 1 -->
<svg width="927pt" height="473pt"
 viewBox="0.00 0.00 927.20 473.40" xmlns="http://www.w3.org/2000/svg" xmlns:xlink="http://www.w3.org/1999/xlink">
<g id="graph0" class="graph" transform="scale(1 1) rotate(0) translate(21.6 451.7972)">
<title>G</title>
<polygon fill="#111111" stroke="transparent" points="-21.6,21.6 -21.6,-451.7972 905.6,-451.7972 905.6,21.6 -21.6,21.6"/>
<!-- const.js -->
<g id="node1" class="node">
<title>const.js</title>
<path fill="none" stroke="#cfffac" d="M876.3333,-204.6972C876.3333,-204.6972 825.6667,-204.6972 825.6667,-204.6972 821.8333,-204.6972 818,-200.8638 818,-197.0305 818,-197.0305 818,-189.3638 818,-189.3638 818,-185.5305 821.8333,-181.6972 825.6667,-181.6972 825.6667,-181.6972 876.3333,-181.6972 876.3333,-181.6972 880.1667,-181.6972 884,-185.5305 884,-189.3638 884,-189.3638 884,-197.0305 884,-197.0305 884,-200.8638 880.1667,-204.6972 876.3333,-204.6972"/>
<text text-anchor="middle" x="851" y="-189.4972" font-family="Arial" font-size="14.00" fill="#cfffac">const.js</text>
</g>
<!-- entities.js -->
<g id="node2" class="node">
<title>entities.js</title>
<path fill="none" stroke="#ff6c60" d="M666.3333,-363.6972C666.3333,-363.6972 604.6667,-363.6972 604.6667,-363.6972 600.8333,-363.6972 597,-359.8638 597,-356.0305 597,-356.0305 597,-348.3638 597,-348.3638 597,-344.5305 600.8333,-340.6972 604.6667,-340.6972 604.6667,-340.6972 666.3333,-340.6972 666.3333,-340.6972 670.1667,-340.6972 674,-344.5305 674,-348.3638 674,-348.3638 674,-356.0305 674,-356.0305 674,-359.8638 670.1667,-363.6972 666.3333,-363.6972"/>
<text text-anchor="middle" x="635.5" y="-348.4972" font-family="Arial" font-size="14.00" fill="#ff6c60">entities.js</text>
</g>
<!-- mixins.js -->
<g id="node3" class="node">
<title>mixins.js</title>
<path fill="none" stroke="#ff6c60" d="M774.3333,-363.6972C774.3333,-363.6972 717.6667,-363.6972 717.6667,-363.6972 713.8333,-363.6972 710,-359.8638 710,-356.0305 710,-356.0305 710,-348.3638 710,-348.3638 710,-344.5305 713.8333,-340.6972 717.6667,-340.6972 717.6667,-340.6972 774.3333,-340.6972 774.3333,-340.6972 778.1667,-340.6972 782,-344.5305 782,-348.3638 782,-348.3638 782,-356.0305 782,-356.0305 782,-359.8638 778.1667,-363.6972 774.3333,-363.6972"/>
<text text-anchor="middle" x="746" y="-348.4972" font-family="Arial" font-size="14.00" fill="#ff6c60">mixins.js</text>
</g>
<!-- entities.js&#45;&gt;mixins.js -->
<g id="edge1" class="edge">
<title>entities.js&#45;&gt;mixins.js</title>
<path fill="none" stroke="#757575" d="M674.1475,-352.1972C682.3773,-352.1972 691.1489,-352.1972 699.6335,-352.1972"/>
<polygon fill="#757575" stroke="#757575" points="699.7847,-355.6973 709.7847,-352.1972 699.7847,-348.6973 699.7847,-355.6973"/>
</g>
<!-- game.js -->
<g id="node5" class="node">
<title>game.js</title>
<path fill="none" stroke="#ff6c60" d="M187.8333,-176.6972C187.8333,-176.6972 135.1667,-176.6972 135.1667,-176.6972 131.3333,-176.6972 127.5,-172.8638 127.5,-169.0305 127.5,-169.0305 127.5,-161.3638 127.5,-161.3638 127.5,-157.5305 131.3333,-153.6972 135.1667,-153.6972 135.1667,-153.6972 187.8333,-153.6972 187.8333,-153.6972 191.6667,-153.6972 195.5,-157.5305 195.5,-161.3638 195.5,-161.3638 195.5,-169.0305 195.5,-169.0305 195.5,-172.8638 191.6667,-176.6972 187.8333,-176.6972"/>
<text text-anchor="middle" x="161.5" y="-161.4972" font-family="Arial" font-size="14.00" fill="#ff6c60">game.js</text>
</g>
<!-- mixins.js&#45;&gt;game.js -->
<g id="edge15" class="edge">
<title>mixins.js&#45;&gt;game.js</title>
<path fill="none" stroke="#757575" d="M726.7308,-363.7063C688.5196,-385.4033 599.8425,-430.1972 519,-430.1972 408.5,-430.1972 408.5,-430.1972 408.5,-430.1972 275.6218,-430.1972 193.8354,-249.6994 169.3149,-186.6343"/>
<polygon fill="#757575" stroke="#757575" points="172.4523,-185.0364 165.6355,-176.9258 165.9067,-187.5172 172.4523,-185.0364"/>
</g>
<!-- xy.js -->
<g id="node12" class="node">
<title>xy.js</title>
<path fill="none" stroke="#cfffac" d="M870.3333,-363.6972C870.3333,-363.6972 831.6667,-363.6972 831.6667,-363.6972 827.8333,-363.6972 824,-359.8638 824,-356.0305 824,-356.0305 824,-348.3638 824,-348.3638 824,-344.5305 827.8333,-340.6972 831.6667,-340.6972 831.6667,-340.6972 870.3333,-340.6972 870.3333,-340.6972 874.1667,-340.6972 878,-344.5305 878,-348.3638 878,-348.3638 878,-356.0305 878,-356.0305 878,-359.8638 874.1667,-363.6972 870.3333,-363.6972"/>
<text text-anchor="middle" x="851" y="-348.4972" font-family="Arial" font-size="14.00" fill="#cfffac">xy.js</text>
</g>
<!-- mixins.js&#45;&gt;xy.js -->
<g id="edge16" class="edge">
<title>mixins.js&#45;&gt;xy.js</title>
<path fill="none" stroke="#757575" d="M782.135,-352.1972C792.2615,-352.1972 803.2904,-352.1972 813.4945,-352.1972"/>
<polygon fill="#757575" stroke="#757575" points="813.7572,-355.6973 823.7571,-352.1972 813.7571,-348.6973 813.7572,-355.6973"/>
</g>
<!-- entity.js -->
<g id="node4" class="node">
<title>entity.js</title>
<path fill="none" stroke="#cfffac" d="M660.3333,-283.6972C660.3333,-283.6972 610.6667,-283.6972 610.6667,-283.6972 606.8333,-283.6972 603,-279.8638 603,-276.0305 603,-276.0305 603,-268.3638 603,-268.3638 603,-264.5305 606.8333,-260.6972 610.6667,-260.6972 610.6667,-260.6972 660.3333,-260.6972 660.3333,-260.6972 664.1667,-260.6972 668,-264.5305 668,-268.3638 668,-268.3638 668,-276.0305 668,-276.0305 668,-279.8638 664.1667,-283.6972 660.3333,-283.6972"/>
<text text-anchor="middle" x="635.5" y="-268.4972" font-family="Arial" font-size="14.00" fill="#cfffac">entity.js</text>
</g>
<!-- game.js&#45;&gt;const.js -->
<g id="edge2" class="edge">
<title>game.js&#45;&gt;const.js</title>
<path fill="none" stroke="#757575" d="M195.5832,-158.8061C204.7717,-155.6869 214.0735,-151.0583 221,-144.1972 254.2624,-111.2485 222.9153,-77.2944 257,-45.1972 308.1362,2.9574 338.2591,-.1972 408.5,-.1972 408.5,-.1972 408.5,-.1972 635.5,-.1972 708.4461,-.1972 728.9523,-24.1264 782,-74.1972 811.7648,-102.2916 832.6017,-146.1048 843.1242,-171.9981"/>
<polygon fill="#757575" stroke="#757575" points="839.9761,-173.5576 846.8825,-181.5921 846.4939,-171.0044 839.9761,-173.5576"/>
</g>
<!-- screens.js -->
<g id="node6" class="node">
<title>screens.js</title>
<path fill="none" stroke="#ff6c60" d="M332.3333,-235.6972C332.3333,-235.6972 264.6667,-235.6972 264.6667,-235.6972 260.8333,-235.6972 257,-231.8638 257,-228.0305 257,-228.0305 257,-220.3638 257,-220.3638 257,-216.5305 260.8333,-212.6972 264.6667,-212.6972 264.6667,-212.6972 332.3333,-212.6972 332.3333,-212.6972 336.1667,-212.6972 340,-216.5305 340,-220.3638 340,-220.3638 340,-228.0305 340,-228.0305 340,-231.8638 336.1667,-235.6972 332.3333,-235.6972"/>
<text text-anchor="middle" x="298.5" y="-220.4972" font-family="Arial" font-size="14.00" fill="#ff6c60">screens.js</text>
</g>
<!-- game.js&#45;&gt;screens.js -->
<g id="edge3" class="edge">
<title>game.js&#45;&gt;screens.js</title>
<path fill="none" stroke="#757575" d="M195.7175,-173.999C219.7428,-183.0974 251.349,-196.893 273.1372,-207.8929"/>
<polygon fill="#757575" stroke="#757575" points="271.623,-211.0505 282.1086,-212.5683 274.8581,-204.8429 271.623,-211.0505"/>
</g>
<!-- util.js -->
<g id="node7" class="node">
<title>util.js</title>
<path fill="none" stroke="#cfffac" d="M765.3333,-106.6972C765.3333,-106.6972 726.6667,-106.6972 726.6667,-106.6972 722.8333,-106.6972 719,-102.8638 719,-99.0305 719,-99.0305 719,-91.3638 719,-91.3638 719,-87.5305 722.8333,-83.6972 726.6667,-83.6972 726.6667,-83.6972 765.3333,-83.6972 765.3333,-83.6972 769.1667,-83.6972 773,-87.5305 773,-91.3638 773,-91.3638 773,-99.0305 773,-99.0305 773,-102.8638 769.1667,-106.6972 765.3333,-106.6972"/>
<text text-anchor="middle" x="746" y="-91.4972" font-family="Arial" font-size="14.00" fill="#cfffac">util.js</text>
</g>
<!-- game.js&#45;&gt;util.js -->
<g id="edge4" class="edge">
<title>game.js&#45;&gt;util.js</title>
<path fill="none" stroke="#757575" d="M195.7873,-156.6573C204.4746,-153.5636 213.4694,-149.4849 221,-144.1972 241.6784,-129.6774 236.6846,-115.2207 257,-100.1972 315.4959,-56.9385 335.7464,-38.1972 408.5,-38.1972 408.5,-38.1972 408.5,-38.1972 519,-38.1972 587.9415,-38.1972 665.2105,-63.2349 709.4855,-80.122"/>
<polygon fill="#757575" stroke="#757575" points="708.3583,-83.439 718.9471,-83.7994 710.8942,-76.9144 708.3583,-83.439"/>
</g>
<!-- screens.js&#45;&gt;const.js -->
<g id="edge17" class="edge">
<title>screens.js&#45;&gt;const.js</title>
<path fill="none" stroke="#757575" d="M314.7592,-235.7016C350.116,-259.5551 437.3898,-312.1972 519,-312.1972 519,-312.1972 519,-312.1972 635.5,-312.1972 717.3507,-312.1972 797.343,-245.597 832.4485,-212.0449"/>
<polygon fill="#757575" stroke="#757575" points="834.9118,-214.5313 839.6247,-205.0424 830.0231,-209.5213 834.9118,-214.5313"/>
</g>
<!-- screens.js&#45;&gt;entities.js -->
<g id="edge18" class="edge">
<title>screens.js&#45;&gt;entities.js</title>
<path fill="none" stroke="#757575" d="M303.4662,-235.8786C313.5178,-257.9012 338.5485,-305.226 376,-326.1972 441.6914,-362.9815 531.5288,-362.9493 586.4288,-358.409"/>
<polygon fill="#757575" stroke="#757575" points="586.951,-361.876 596.5924,-357.4836 586.3162,-354.9048 586.951,-361.876"/>
</g>
<!-- screens.js&#45;&gt;entity.js -->
<g id="edge19" class="edge">
<title>screens.js&#45;&gt;entity.js</title>
<path fill="none" stroke="#757575" d="M340.1608,-230.131C404.6846,-239.3214 528.1067,-256.9008 593.0856,-266.1559"/>
<polygon fill="#757575" stroke="#757575" points="592.6009,-269.6222 602.9946,-267.5673 593.5881,-262.6921 592.6009,-269.6222"/>
</g>
<!-- screens.js&#45;&gt;game.js -->
<g id="edge20" class="edge">
<title>screens.js&#45;&gt;game.js</title>
<path fill="none" stroke="#757575" d="M257.0731,-212.6141C234.1421,-203.6163 206.3871,-191.3676 186.7087,-181.4236"/>
<polygon fill="#757575" stroke="#757575" points="188.2386,-178.2741 177.7537,-176.7514 185.0006,-184.4802 188.2386,-178.2741"/>
</g>
<!-- screens.js&#45;&gt;util.js -->
<g id="edge21" class="edge">
<title>screens.js&#45;&gt;util.js</title>
<path fill="none" stroke="#757575" d="M334.6417,-212.5887C390.6227,-194.742 501.7825,-159.8376 597,-133.1972 634.9456,-122.5806 678.6655,-111.5743 708.8877,-104.1568"/>
<polygon fill="#757575" stroke="#757575" points="710.1001,-107.4636 718.9832,-101.6894 708.4381,-100.6638 710.1001,-107.4636"/>
</g>
<!-- screens.js&#45;&gt;xy.js -->
<g id="edge23" class="edge">
<title>screens.js&#45;&gt;xy.js</title>
<path fill="none" stroke="#757575" d="M302.3672,-236.0274C311.2053,-261.181 335.3186,-320.2033 376,-351.1972 428.5919,-391.2652 452.8838,-392.1972 519,-392.1972 519,-392.1972 519,-392.1972 635.5,-392.1972 701.1564,-392.1972 717.8164,-387.0256 782,-373.1972 792.5749,-370.9188 803.8704,-367.7866 814.1957,-364.6364"/>
<polygon fill="#757575" stroke="#757575" points="815.2512,-367.9736 823.7429,-361.6378 813.1536,-361.2952 815.2512,-367.9736"/>
</g>
<!-- world.js -->
<g id="node14" class="node">
<title>world.js</title>
<path fill="none" stroke="#ff6c60" d="M433.3333,-89.6972C433.3333,-89.6972 383.6667,-89.6972 383.6667,-89.6972 379.8333,-89.6972 376,-85.8638 376,-82.0305 376,-82.0305 376,-74.3638 376,-74.3638 376,-70.5305 379.8333,-66.6972 383.6667,-66.6972 383.6667,-66.6972 433.3333,-66.6972 433.3333,-66.6972 437.1667,-66.6972 441,-70.5305 441,-74.3638 441,-74.3638 441,-82.0305 441,-82.0305 441,-85.8638 437.1667,-89.6972 433.3333,-89.6972"/>
<text text-anchor="middle" x="408.5" y="-74.4972" font-family="Arial" font-size="14.00" fill="#ff6c60">world.js</text>
</g>
<!-- screens.js&#45;&gt;world.js -->
<g id="edge22" class="edge">
<title>screens.js&#45;&gt;world.js</title>
<path fill="none" stroke="#757575" d="M304.4405,-212.4245C316.1574,-189.8825 343.9114,-139.7128 376,-104.1972 378.3979,-101.5432 381.0835,-98.9435 383.856,-96.4763"/>
<polygon fill="#757575" stroke="#757575" points="386.2731,-99.0187 391.7329,-89.9389 381.8026,-93.6322 386.2731,-99.0187"/>
</g>
<!-- index.js -->
<g id="node8" class="node">
<title>index.js</title>
<path fill="none" stroke="#c6c5fe" d="M58.3333,-155.6972C58.3333,-155.6972 7.6667,-155.6972 7.6667,-155.6972 3.8333,-155.6972 0,-151.8638 0,-148.0305 0,-148.0305 0,-140.3638 0,-140.3638 0,-136.5305 3.8333,-132.6972 7.6667,-132.6972 7.6667,-132.6972 58.3333,-132.6972 58.3333,-132.6972 62.1667,-132.6972 66,-136.5305 66,-140.3638 66,-140.3638 66,-148.0305 66,-148.0305 66,-151.8638 62.1667,-155.6972 58.3333,-155.6972"/>
<text text-anchor="middle" x="33" y="-140.4972" font-family="Arial" font-size="14.00" fill="#c6c5fe">index.js</text>
</g>
<!-- index.js&#45;&gt;game.js -->
<g id="edge5" class="edge">
<title>index.js&#45;&gt;game.js</title>
<path fill="none" stroke="#757575" d="M66.0919,-149.6052C81.6105,-152.1413 100.3289,-155.2003 117.0605,-157.9347"/>
<polygon fill="#757575" stroke="#757575" points="116.7416,-161.4289 127.1752,-159.5877 117.8706,-154.5205 116.7416,-161.4289"/>
</g>
<!-- styles/index.css -->
<g id="node9" class="node">
<title>styles/index.css</title>
<path fill="none" stroke="#cfffac" d="M213.3333,-135.6972C213.3333,-135.6972 109.6667,-135.6972 109.6667,-135.6972 105.8333,-135.6972 102,-131.8638 102,-128.0305 102,-128.0305 102,-120.3638 102,-120.3638 102,-116.5305 105.8333,-112.6972 109.6667,-112.6972 109.6667,-112.6972 213.3333,-112.6972 213.3333,-112.6972 217.1667,-112.6972 221,-116.5305 221,-120.3638 221,-120.3638 221,-128.0305 221,-128.0305 221,-131.8638 217.1667,-135.6972 213.3333,-135.6972"/>
<text text-anchor="middle" x="161.5" y="-120.4972" font-family="Arial" font-size="14.00" fill="#cfffac">styles/index.css</text>
</g>
<!-- index.js&#45;&gt;styles/index.css -->
<g id="edge6" class="edge">
<title>index.js&#45;&gt;styles/index.css</title>
<path fill="none" stroke="#757575" d="M66.0919,-139.0467C74.0342,-137.8105 82.8146,-136.4439 91.7379,-135.0551"/>
<polygon fill="#757575" stroke="#757575" points="92.4934,-138.4797 101.8362,-133.4834 91.4168,-131.563 92.4934,-138.4797"/>
</g>
<!-- map.js -->
<g id="node10" class="node">
<title>map.js</title>
<path fill="none" stroke="#c6c5fe" d="M657.3333,-165.6972C657.3333,-165.6972 613.6667,-165.6972 613.6667,-165.6972 609.8333,-165.6972 606,-161.8638 606,-158.0305 606,-158.0305 606,-150.3638 606,-150.3638 606,-146.5305 609.8333,-142.6972 613.6667,-142.6972 613.6667,-142.6972 657.3333,-142.6972 657.3333,-142.6972 661.1667,-142.6972 665,-146.5305 665,-150.3638 665,-150.3638 665,-158.0305 665,-158.0305 665,-161.8638 661.1667,-165.6972 657.3333,-165.6972"/>
<text text-anchor="middle" x="635.5" y="-150.4972" font-family="Arial" font-size="14.00" fill="#c6c5fe">map.js</text>
</g>
<!-- map.js&#45;&gt;util.js -->
<g id="edge8" class="edge">
<title>map.js&#45;&gt;util.js</title>
<path fill="none" stroke="#757575" d="M657.0678,-142.6813C673.6167,-133.8453 696.6849,-121.5283 715.1799,-111.6532"/>
<polygon fill="#757575" stroke="#757575" points="716.9361,-114.6832 724.1089,-106.8856 713.6391,-108.5082 716.9361,-114.6832"/>
</g>
<!-- tile.js -->
<g id="node11" class="node">
<title>tile.js</title>
<path fill="none" stroke="#c6c5fe" d="M765.3333,-165.6972C765.3333,-165.6972 726.6667,-165.6972 726.6667,-165.6972 722.8333,-165.6972 719,-161.8638 719,-158.0305 719,-158.0305 719,-150.3638 719,-150.3638 719,-146.5305 722.8333,-142.6972 726.6667,-142.6972 726.6667,-142.6972 765.3333,-142.6972 765.3333,-142.6972 769.1667,-142.6972 773,-146.5305 773,-150.3638 773,-150.3638 773,-158.0305 773,-158.0305 773,-161.8638 769.1667,-165.6972 765.3333,-165.6972"/>
<text text-anchor="middle" x="746" y="-150.4972" font-family="Arial" font-size="14.00" fill="#c6c5fe">tile.js</text>
</g>
<!-- map.js&#45;&gt;tile.js -->
<g id="edge7" class="edge">
<title>map.js&#45;&gt;tile.js</title>
<path fill="none" stroke="#757575" d="M665.112,-154.1972C678.5899,-154.1972 694.6833,-154.1972 708.9529,-154.1972"/>
<polygon fill="#757575" stroke="#757575" points="708.9576,-157.6973 718.9576,-154.1972 708.9576,-150.6973 708.9576,-157.6973"/>
</g>
<!-- map.js&#45;&gt;xy.js -->
<g id="edge9" class="edge">
<title>map.js&#45;&gt;xy.js</title>
<path fill="none" stroke="#757575" d="M648.0177,-165.6983C683.8739,-198.6428 787.1914,-293.5702 830.9916,-333.8136"/>
<polygon fill="#757575" stroke="#757575" points="828.716,-336.4758 838.4478,-340.6643 833.452,-331.3212 828.716,-336.4758"/>
</g>
<!-- tile.js&#45;&gt;const.js -->
<g id="edge24" class="edge">
<title>tile.js&#45;&gt;const.js</title>
<path fill="none" stroke="#757575" d="M773.0401,-164.2406C784.3554,-168.4434 797.7525,-173.4195 810.2204,-178.0504"/>
<polygon fill="#757575" stroke="#757575" points="809.3697,-181.468 819.9626,-181.669 811.807,-174.9061 809.3697,-181.468"/>
</g>
<!-- mapgen.js -->
<g id="node13" class="node">
<title>mapgen.js</title>
<path fill="none" stroke="#ff6c60" d="M553.3333,-214.6972C553.3333,-214.6972 484.6667,-214.6972 484.6667,-214.6972 480.8333,-214.6972 477,-210.8638 477,-207.0305 477,-207.0305 477,-199.3638 477,-199.3638 477,-195.5305 480.8333,-191.6972 484.6667,-191.6972 484.6667,-191.6972 553.3333,-191.6972 553.3333,-191.6972 557.1667,-191.6972 561,-195.5305 561,-199.3638 561,-199.3638 561,-207.0305 561,-207.0305 561,-210.8638 557.1667,-214.6972 553.3333,-214.6972"/>
<text text-anchor="middle" x="519" y="-199.4972" font-family="Arial" font-size="14.00" fill="#ff6c60">mapgen.js</text>
</g>
<!-- mapgen.js&#45;&gt;const.js -->
<g id="edge10" class="edge">
<title>mapgen.js&#45;&gt;const.js</title>
<path fill="none" stroke="#757575" d="M561.048,-201.9307C624.3518,-200.0239 743.5302,-196.4342 807.6121,-194.504"/>
<polygon fill="#757575" stroke="#757575" points="807.893,-197.9972 817.783,-194.1977 807.6822,-191.0004 807.893,-197.9972"/>
</g>
<!-- mapgen.js&#45;&gt;entities.js -->
<g id="edge11" class="edge">
<title>mapgen.js&#45;&gt;entities.js</title>
<path fill="none" stroke="#757575" d="M528.1416,-214.8889C548.0479,-240.3486 595.4998,-301.0382 620.1078,-332.511"/>
<polygon fill="#757575" stroke="#757575" points="617.4841,-334.8377 626.4009,-340.5597 622.9986,-330.526 617.4841,-334.8377"/>
</g>
<!-- mapgen.js&#45;&gt;entity.js -->
<g id="edge12" class="edge">
<title>mapgen.js&#45;&gt;entity.js</title>
<path fill="none" stroke="#757575" d="M538.4995,-214.7462C557.3166,-225.8911 586.0074,-242.8839 607.3099,-255.5009"/>
<polygon fill="#757575" stroke="#757575" points="605.5492,-258.5258 615.9369,-260.6104 609.1164,-252.5029 605.5492,-258.5258"/>
</g>
<!-- mapgen.js&#45;&gt;map.js -->
<g id="edge13" class="edge">
<title>mapgen.js&#45;&gt;map.js</title>
<path fill="none" stroke="#757575" d="M546.6089,-191.5848C562.1331,-185.0553 581.7165,-176.8186 598.5484,-169.739"/>
<polygon fill="#757575" stroke="#757575" points="600.2284,-172.8295 608.0893,-165.7261 597.5145,-166.377 600.2284,-172.8295"/>
</g>
<!-- mapgen.js&#45;&gt;tile.js -->
<g id="edge14" class="edge">
<title>mapgen.js&#45;&gt;tile.js</title>
<path fill="none" stroke="#757575" d="M561.3071,-196.2929C592.5826,-190.944 636.1308,-182.9822 674,-174.1972 685.4174,-171.5485 697.7433,-168.2785 708.9145,-165.1555"/>
<polygon fill="#757575" stroke="#757575" points="710.1266,-168.4497 718.79,-162.3508 708.2142,-161.716 710.1266,-168.4497"/>
</g>
<!-- world.js&#45;&gt;game.js -->
<g id="edge25" class="edge">
<title>world.js&#45;&gt;game.js</title>
<path fill="none" stroke="#757575" d="M375.9581,-89.6593C331.7731,-105.2224 252.7297,-133.0636 203.933,-150.2511"/>
<polygon fill="#757575" stroke="#757575" points="202.5689,-147.0208 194.2997,-153.6442 204.8945,-153.6232 202.5689,-147.0208"/>
</g>
<!-- world.js&#45;&gt;util.js -->
<g id="edge27" class="edge">
<title>world.js&#45;&gt;util.js</title>
<path fill="none" stroke="#757575" d="M441.1676,-79.8426C504.1359,-83.0144 641.9568,-89.9565 708.5328,-93.3099"/>
<polygon fill="#757575" stroke="#757575" points="708.4203,-96.8086 718.5838,-93.8162 708.7725,-89.8175 708.4203,-96.8086"/>
</g>
<!-- world.js&#45;&gt;mapgen.js -->
<g id="edge26" class="edge">
<title>world.js&#45;&gt;mapgen.js</title>
<path fill="none" stroke="#757575" d="M418.6975,-89.7328C437.6925,-111.2203 478.6704,-157.5754 501.9434,-183.9023"/>
<polygon fill="#757575" stroke="#757575" points="499.5817,-186.5152 508.8271,-191.6894 504.8262,-181.879 499.5817,-186.5152"/>
</g>
</g>
</svg>
